<svg width="401.0450073242187px" height="163.04000549316405px" xmlns="http://www.w3.org/2000/svg"
  viewBox="49.47749633789064 -6.520002746582023 401.0450073242187 163.04000549316405" preserveAspectRatio="xMidYMid">
  <defs>
    <filter id="editing-hole" x="-100%" y="-100%" width="300%" height="300%">
      <feFlood flood-color="#bbcedd" result="black"></feFlood>
      <feMorphology operator="dilate" radius="2" in="SourceGraphic" result="erode"></feMorphology>
      <feGaussianBlur in="erode" stdDeviation="4" result="blur"></feGaussianBlur>
      <feOffset in="blur" dx="2" dy="2" result="offset"></feOffset>
      <feComposite operator="atop" in="offset" in2="black" result="merge"></feComposite>
      <feComposite operator="in" in="merge" in2="SourceGraphic" result="inner-shadow"></feComposite>
    </filter>
  </defs>
  <g filter="url(#editing-hole)">
    <g transform="translate(110.45501834154129, 105.60000419616699)">
      <path
        d="M39.96-13.86L39.96-13.86L39.96-13.86Q41.67-11.70 41.67-8.19L41.67-8.19L41.67-8.19Q41.67-3.33 38.07-0.77L38.07-0.77L38.07-0.77Q34.47 1.80 28.80 1.80L28.80 1.80L28.80 1.80Q25.56 1.80 20.61 1.08L20.61 1.08L20.61 1.08Q10.89-0.45 7.92-0.45L7.92-0.45L7.92-0.45Q4.95-0.45 3.78-0.32L3.78-0.32L3.78-0.32Q2.61-0.18 0.72 0L0.72 0L11.79-59.40L50.58-59.40L50.58-59.40Q50.58-53.91 47.92-51.03L47.92-51.03L47.92-51.03Q45.27-48.15 40.05-48.15L40.05-48.15L40.05-48.15Q34.83-48.15 29.52-50.58L29.52-50.58L26.73-34.83L42.75-34.83L42.75-34.83Q42.75-30.06 40.41-27.40L40.41-27.40L40.41-27.40Q38.07-24.75 34.16-24.75L34.16-24.75L34.16-24.75Q30.24-24.75 27.81-25.65L27.81-25.65L27.81-25.65Q25.38-26.55 25.11-26.82L25.11-26.82L21.87-9.81L21.87-9.81Q24.03-9.54 28.08-9.54L28.08-9.54L28.08-9.54Q35.01-9.54 39.96-13.86ZM82.62-44.37L82.62-44.37L82.62-44.37Q85.59-47.70 90.72-47.70L90.72-47.70L90.72-47.70Q93.87-47.70 96.30-45.99L96.30-45.99L96.30-45.99Q98.73-44.28 98.73-41.09L98.73-41.09L98.73-41.09Q98.73-37.89 97.74-34.47L97.74-34.47L97.74-34.47Q96.75-31.05 95.22-27.54L95.22-27.54L95.22-27.54Q92.16-20.70 87.93-15.03L87.93-15.03L87.93-15.03Q81.99-6.84 76.28-2.52L76.28-2.52L76.28-2.52Q70.56 1.80 64.35 1.80L64.35 1.80L64.35 1.80Q59.31 1.80 56.25 0.63L56.25 0.63L56.25 0.63Q55.71-18.27 55.04-25.02L55.04-25.02L55.04-25.02Q54.36-31.77 53.82-35.46L53.82-35.46L53.82-35.46Q52.92-42.66 50.22-44.37L50.22-44.37L50.22-44.37Q52.29-46.17 54.31-46.93L54.31-46.93L54.31-46.93Q56.34-47.70 60.53-47.70L60.53-47.70L60.53-47.70Q64.71-47.70 67.68-44.41L67.68-44.41L67.68-44.41Q70.65-41.13 71.23-35.32L71.23-35.32L71.23-35.32Q71.82-29.52 71.82-22.50L71.82-22.50L71.82-22.50Q71.82-15.48 71.28-7.02L71.28-7.02L71.28-7.02Q74.07-9 77.04-15.03L77.04-15.03L77.04-15.03Q81.09-23.40 82.53-33.48L82.53-33.48L82.53-33.48Q82.98-36.54 82.98-39.78L82.98-39.78L82.98-39.78Q82.98-43.02 82.62-44.37ZM137.61-15.21L137.61-15.21L137.61-15.21Q139.86-13.68 139.86-10.30L139.86-10.30L139.86-10.30Q139.86-6.93 138.15-4.77L138.15-4.77L138.15-4.77Q136.44-2.61 133.65-1.17L133.65-1.17L133.65-1.17Q127.89 1.80 121.68 1.80L121.68 1.80L121.68 1.80Q115.47 1.80 111.82 0.45L111.82 0.45L111.82 0.45Q108.18-0.90 105.75-3.42L105.75-3.42L105.75-3.42Q100.98-8.19 100.98-16.92L100.98-16.92L100.98-16.92Q100.98-30.51 108.36-38.79L108.36-38.79L108.36-38.79Q116.28-47.70 130.05-47.70L130.05-47.70L130.05-47.70Q138.60-47.70 142.83-44.10L142.83-44.10L142.83-44.10Q145.98-41.40 145.98-36.99L145.98-36.99L145.98-36.99Q145.98-21.15 118.62-21.15L118.62-21.15L118.62-21.15Q118.26-18.81 118.26-16.83L118.26-16.83L118.26-16.83Q118.26-12.69 120.10-11.12L120.10-11.12L120.10-11.12Q121.95-9.54 125.37-9.54L125.37-9.54L125.37-9.54Q128.79-9.54 132.44-11.12L132.44-11.12L132.44-11.12Q136.08-12.69 137.61-15.21ZM119.25-25.02L119.25-25.02L119.25-25.02Q125.64-25.02 129.33-28.98L129.33-28.98L129.33-28.98Q133.02-32.76 133.02-38.79L133.02-38.79L133.02-38.79Q133.02-40.86 132.25-41.98L132.25-41.98L132.25-41.98Q131.49-43.11 129.96-43.11L129.96-43.11L129.96-43.11Q128.43-43.11 127.13-42.52L127.13-42.52L127.13-42.52Q125.82-41.94 124.47-39.96L124.47-39.96L124.47-39.96Q121.14-35.46 119.25-25.02ZM187.11 1.80L187.11 1.80L187.11 1.80Q176.22 1.80 176.22-6.66L176.22-6.66L176.22-6.66Q176.31-9 177.03-12.96L177.03-12.96L178.65-21.24L178.65-21.24Q181.08-32.94 181.08-35.55L181.08-35.55L181.08-35.55Q181.08-40.77 178.02-40.77L178.02-40.77L178.02-40.77Q172.89-40.77 170.19-27.36L170.19-27.36L164.88 0L146.79 1.80L156.15-45.99L170.91-47.70L169.47-38.88L169.47-38.88Q173.70-47.70 186.66-47.70L186.66-47.70L186.66-47.70Q192.96-47.70 195.61-45.05L195.61-45.05L195.61-45.05Q198.27-42.39 198.27-36.45L198.27-36.45L198.27-36.45Q198.27-30.87 195.39-17.82L195.39-17.82L195.39-17.82Q194.04-11.97 194.04-9.76L194.04-9.76L194.04-9.76Q194.04-7.56 195.25-6.30L195.25-6.30L195.25-6.30Q196.47-5.04 198.27-4.86L198.27-4.86L198.27-4.86Q197.37-1.80 194.26 0L194.26 0L194.26 0Q191.16 1.80 187.11 1.80ZM206.91-9L206.91-9L206.91-9Q206.91-11.43 208.17-17.55L208.17-17.55L212.94-41.85L207.63-41.85L207.99-44.55L207.99-44.55Q218.79-47.79 229.23-55.71L229.23-55.71L233.55-55.71L231.39-45.90L238.41-45.90L237.60-41.85L230.67-41.85L226.08-17.55L226.08-17.55Q224.91-11.97 224.91-10.08L224.91-10.08L224.91-10.08Q224.91-5.76 228.69-4.86L228.69-4.86L228.69-4.86Q227.79-1.80 224.55 0L224.55 0L224.55 0Q221.31 1.80 216.72 1.80L216.72 1.80L216.72 1.80Q212.13 1.80 209.52-1.08L209.52-1.08L209.52-1.08Q206.91-3.96 206.91-9ZM264.87-31.59L264.87-31.59L264.87-31.59Q266.13-34.92 266.13-37.80L266.13-37.80L266.13-37.80Q266.13-43.11 261.81-43.11L261.81-43.11L261.81-43.11Q259.56-43.11 257.72-41.09L257.72-41.09L257.72-41.09Q255.87-39.06 255.87-36.54L255.87-36.54L255.87-36.54Q255.87-34.74 257.31-33.30L257.31-33.30L257.31-33.30Q259.38-31.32 264.69-28.08L264.69-28.08L264.69-28.08Q270-24.84 272.02-22.18L272.02-22.18L272.02-22.18Q274.05-19.53 274.05-15.88L274.05-15.88L274.05-15.88Q274.05-12.24 272.30-8.91L272.30-8.91L272.30-8.91Q270.54-5.58 267.39-3.24L267.39-3.24L267.39-3.24Q260.64 1.80 249.84 1.80L249.84 1.80L249.84 1.80Q243.99 1.80 239.49-1.26L239.49-1.26L239.49-1.26Q234.99-4.23 234.99-7.74L234.99-7.74L234.99-7.74Q234.99-11.25 237.56-13.32L237.56-13.32L237.56-13.32Q240.12-15.39 243.90-15.39L243.90-15.39L243.90-15.39Q247.68-15.39 250.02-13.95L250.02-13.95L250.02-13.95Q248.85-10.98 248.85-9L248.85-9L248.85-9Q248.85-3.06 253.89-3.06L253.89-3.06L253.89-3.06Q256.05-3.06 257.49-4.41L257.49-4.41L257.49-4.41Q258.93-5.76 258.93-8.10L258.93-8.10L258.93-8.10Q258.93-12.69 251.19-17.55L251.19-17.55L251.19-17.55Q244.89-21.69 243.45-23.31L243.45-23.31L243.45-23.31Q241.02-26.19 241.02-29.79L241.02-29.79L241.02-29.79Q241.02-33.39 242.73-36.81L242.73-36.81L242.73-36.81Q244.44-40.23 247.59-42.66L247.59-42.66L247.59-42.66Q254.16-47.70 265.59-47.70L265.59-47.70L265.59-47.70Q271.44-47.70 274.91-45.36L274.91-45.36L274.91-45.36Q278.37-43.02 278.37-39.06L278.37-39.06L278.37-39.06Q278.37-35.10 275.99-32.85L275.99-32.85L275.99-32.85Q273.60-30.60 269.28-30.60L269.28-30.60L269.28-30.60Q266.31-30.60 264.87-31.59Z"
        fill="#878c90"></path>
    </g>
  </g>
  <style>
    text {
      font-size: 84px;
      font-family: Arial Black;
      dominant-baseline: central;
      text-anchor: middle;
    }
  </style>
</svg>