<svg xmlns="http://www.w3.org/2000/svg" xmlns:xlink="http://www.w3.org/1999/xlink" width="500" zoomAndPan="magnify"
    viewBox="0 0 375 374.999991" height="500" preserveAspectRatio="xMidYMid meet" version="1.0">
    <defs>
        <g />
        <clipPath id="a52cb11da2">
            <path
                d="M 154.234375 226.273438 L 160.34375 226.273438 L 160.34375 232.382812 L 154.234375 232.382812 Z M 154.234375 226.273438 "
                clip-rule="nonzero" />
        </clipPath>
        <clipPath id="583271fc8d">
            <path
                d="M 157.289062 226.273438 C 155.601562 226.273438 154.234375 227.640625 154.234375 229.328125 C 154.234375 231.015625 155.601562 232.382812 157.289062 232.382812 C 158.976562 232.382812 160.34375 231.015625 160.34375 229.328125 C 160.34375 227.640625 158.976562 226.273438 157.289062 226.273438 "
                clip-rule="nonzero" />
        </clipPath>
    </defs>
    <path fill="#cfb034"
        d="M 210.347656 113.828125 L 145.679688 113.828125 L 145.679688 197.492188 L 229.347656 197.492188 L 229.347656 113.828125 Z M 223.769531 119.402344 L 223.769531 126.875 C 220.144531 125.890625 217.28125 123.027344 216.296875 119.402344 Z M 210.59375 119.402344 C 211.761719 126.109375 217.0625 131.410156 223.769531 132.578125 L 223.769531 139.625 C 213.210938 138.355469 204.816406 129.960938 203.546875 119.402344 Z M 197.9375 119.402344 C 199.253906 133.035156 210.136719 143.917969 223.769531 145.234375 L 223.769531 152.234375 C 220.457031 151.976562 217.21875 151.265625 214.109375 150.109375 C 209.796875 148.511719 205.882812 146.117188 202.472656 143 C 195.765625 136.871094 191.652344 128.390625 190.941406 119.402344 Z M 164.679688 154.613281 C 167.128906 153.570312 169.457031 152.296875 171.648438 150.808594 L 171.648438 191.917969 L 164.679688 191.917969 Z M 177.226562 146.257812 C 181.914062 141.707031 185.417969 136.132812 187.515625 130.046875 C 189.613281 136.132812 193.117188 141.707031 197.800781 146.257812 L 197.800781 191.917969 L 177.226562 191.917969 Z M 203.378906 150.808594 C 205.570312 152.296875 207.898438 153.570312 210.347656 154.613281 L 210.347656 191.917969 L 203.378906 191.917969 Z M 184.085938 119.402344 C 183.378906 128.390625 179.265625 136.871094 172.558594 143 C 169.144531 146.117188 165.230469 148.511719 160.921875 150.109375 C 157.808594 151.265625 154.570312 151.980469 151.257812 152.234375 L 151.257812 145.234375 C 164.894531 143.917969 175.773438 133.035156 177.09375 119.402344 Z M 171.484375 119.402344 C 170.210938 129.960938 161.816406 138.355469 151.253906 139.625 L 151.253906 132.578125 C 157.964844 131.410156 163.265625 126.109375 164.433594 119.402344 Z M 151.257812 119.402344 L 158.734375 119.402344 C 157.746094 123.027344 154.882812 125.890625 151.257812 126.875 Z M 151.257812 157.824219 C 153.917969 157.644531 156.539062 157.210938 159.105469 156.53125 L 159.105469 191.917969 L 151.257812 191.917969 Z M 215.925781 191.917969 L 215.925781 156.53125 C 218.488281 157.210938 221.109375 157.644531 223.769531 157.824219 L 223.769531 191.917969 Z M 215.925781 191.917969 "
        fill-opacity="1" fill-rule="nonzero" />
    <g fill="#737373" fill-opacity="1">
        <g transform="translate(112.441753, 236.023329)">
            <g>
                <path
                    d="M 17.921875 0 L 11.6875 0 L 11.6875 -4 C 11.6875 -5.5625 11.539062 -7.039062 11.25 -8.4375 C 10.269531 -9.15625 8.921875 -9.804688 7.203125 -10.390625 C 6.921875 -10.503906 6.34375 -10.6875 5.46875 -10.9375 C 4.59375 -11.1875 3.421875 -11.515625 1.953125 -11.921875 C 2.023438 -12.328125 2.171875 -13 2.390625 -13.9375 C 2.609375 -14.875 2.898438 -16.09375 3.265625 -17.59375 C 5.703125 -17.28125 8.195312 -16.648438 10.75 -15.703125 C 13.15625 -14.804688 15.117188 -13.832031 16.640625 -12.78125 C 17.492188 -11.082031 17.921875 -8.359375 17.921875 -4.609375 Z M 2.078125 0.75 C 1.597656 -0.445312 1.359375 -2.15625 1.359375 -4.375 C 1.359375 -6.164062 1.5 -7.65625 1.78125 -8.84375 L 7.859375 -7.8125 C 7.660156 -6.28125 7.5625 -4.984375 7.5625 -3.921875 C 7.5625 -2.660156 7.6875 -1.503906 7.9375 -0.453125 Z M 2.078125 0.75 " />
            </g>
        </g>
    </g>
    <g fill="#737373" fill-opacity="1">
        <g transform="translate(136.386773, 236.023329)">
            <g>
                <path
                    d="M 15.890625 0 L 9.671875 0 L 9.671875 -4 C 9.671875 -5.4375 9.503906 -6.914062 9.171875 -8.4375 C 8.171875 -9.195312 6.957031 -9.835938 5.53125 -10.359375 C 5.050781 -10.546875 4.40625 -10.765625 3.59375 -11.015625 C 2.789062 -11.265625 1.816406 -11.554688 0.671875 -11.890625 C 0.816406 -12.679688 1.253906 -14.566406 1.984375 -17.546875 C 6.671875 -16.910156 10.878906 -15.320312 14.609375 -12.78125 C 15.460938 -11.082031 15.890625 -8.359375 15.890625 -4.609375 Z M 15.890625 0 " />
            </g>
        </g>
    </g>
    <g fill="#737373" fill-opacity="1">
        <g transform="translate(158.483171, 236.023329)">
            <g>
                <path
                    d="M 9.25 0 L 2.96875 0 L 2.96875 -10.84375 C 2.675781 -11.0625 2.335938 -11.300781 1.953125 -11.5625 C 1.578125 -11.832031 1.148438 -12.128906 0.671875 -12.453125 L 3.53125 -17.765625 C 6.257812 -16.710938 8.164062 -15.445312 9.25 -13.96875 Z M 9.25 0 " />
            </g>
        </g>
    </g>
    <g fill="#737373" fill-opacity="1">
        <g transform="translate(174.445512, 236.023329)">
            <g>
                <path
                    d="M 20.34375 -12.359375 C 19.957031 -7.984375 18.328125 -4.609375 15.453125 -2.234375 C 13.003906 -0.203125 10.039062 0.847656 6.5625 0.921875 C 3.039062 -2.242188 1.019531 -7.90625 0.5 -16.0625 L 6.9375 -17.140625 C 7.332031 -11.828125 8.273438 -8.007812 9.765625 -5.6875 C 10.378906 -5.789062 11.046875 -6.238281 11.765625 -7.03125 C 12.484375 -7.8125 13.019531 -8.675781 13.375 -9.625 C 12.132812 -10.445312 10.875 -11.046875 9.59375 -11.421875 L 11.578125 -17.34375 C 15.523438 -16.269531 18.445312 -14.609375 20.34375 -12.359375 Z M 20.34375 -12.359375 " />
            </g>
        </g>
    </g>
    <g fill="#737373" fill-opacity="1">
        <g transform="translate(200.978603, 236.023329)">
            <g>
                <path
                    d="M 13.0625 -5.78125 L 0.671875 -5.78125 L 0.671875 -10.640625 L 13.0625 -10.640625 Z M 13.0625 -5.78125 " />
            </g>
        </g>
    </g>
    <g fill="#737373" fill-opacity="1">
        <g transform="translate(219.865124, 236.023329)">
            <g>
                <path
                    d="M 17.78125 -8.578125 C 16.914062 -5.992188 15.425781 -3.800781 13.3125 -2 C 11.632812 -0.5625 9.679688 0.53125 7.453125 1.28125 L 4.59375 -4.0625 C 7.414062 -5.25 9.226562 -6.613281 10.03125 -8.15625 C 8.96875 -9.488281 7.394531 -10.546875 5.3125 -11.328125 C 4.945312 -11.460938 4.378906 -11.632812 3.609375 -11.84375 C 2.847656 -12.050781 1.867188 -12.296875 0.671875 -12.578125 C 0.960938 -15.523438 1.859375 -18.6875 3.359375 -22.0625 L 9.703125 -19.96875 C 9.085938 -18.519531 8.707031 -17.359375 8.5625 -16.484375 C 13.09375 -15.285156 16.164062 -12.648438 17.78125 -8.578125 Z M 17.78125 -8.578125 " />
            </g>
        </g>
    </g>
    <g fill="#737373" fill-opacity="1">
        <g transform="translate(243.154731, 236.023329)">
            <g>
                <path
                    d="M 19.0625 -9.421875 C 18.8125 -7.929688 18.097656 -6.328125 16.921875 -4.609375 C 15.546875 -2.597656 13.835938 -0.929688 11.796875 0.390625 L 8.359375 -4.75 C 10.316406 -6.414062 11.441406 -7.734375 11.734375 -8.703125 C 10.660156 -9.710938 9.34375 -10.46875 7.78125 -10.96875 C 6.257812 -11.46875 4.007812 -11.894531 1.03125 -12.25 L 2.171875 -18.109375 C 10.046875 -17.847656 15.675781 -14.953125 19.0625 -9.421875 Z M 7.765625 4.140625 L 1.484375 4.140625 L 1.484375 -8.640625 L 7.765625 -8.640625 Z M 7.765625 4.140625 " />
            </g>
        </g>
    </g>
    <g clip-path="url(#a52cb11da2)">
        <g clip-path="url(#583271fc8d)">
            <path fill="#cfb034"
                d="M 154.234375 226.273438 L 160.34375 226.273438 L 160.34375 232.382812 L 154.234375 232.382812 Z M 154.234375 226.273438 "
                fill-opacity="1" fill-rule="nonzero" />
        </g>
    </g>
    <g fill="#a6a6a6" fill-opacity="1">
        <g transform="translate(138.082357, 258.48864)">
            <g>
                <path
                    d="M 4.167969 0 L 5.289062 0 C 6.820312 0 8.691406 -1.53125 8.691406 -3.097656 L 8.691406 -7.035156 C 8.691406 -8.265625 7.5 -9.210938 6.449219 -9.210938 L 0.710938 -9.210938 L 0.710938 -6.359375 L 5.734375 -6.359375 C 5.949219 -6.359375 6.199219 -6.144531 6.199219 -5.929688 L 6.199219 -4.007812 C 6.199219 -3.082031 5.648438 -2.851562 5.238281 -2.851562 L 4.167969 -2.851562 Z M 0.800781 2.832031 L 3.296875 2.832031 L 3.296875 -5.378906 L 0.800781 -5.378906 Z M 0.800781 2.832031 " />
            </g>
        </g>
    </g>
    <g fill="#a6a6a6" fill-opacity="1">
        <g transform="translate(148.378295, 258.48864)">
            <g>
                <path
                    d="M 1.746094 -3.917969 L 4.238281 -3.917969 L 4.238281 -7.640625 C 4.238281 -8.480469 3.5625 -9.210938 2.566406 -9.210938 L 0.535156 -9.210938 L 0.535156 -6.359375 L 1.746094 -6.359375 Z M 1.746094 -3.917969 " />
            </g>
        </g>
    </g>
    <g fill="#a6a6a6" fill-opacity="1">
        <g transform="translate(154.221098, 258.48864)">
            <g>
                <path
                    d="M 2.492188 0 L 4.703125 0 C 6.414062 0 7.710938 -1.070312 7.710938 -2.777344 L 7.710938 -7.570312 C 7.710938 -8.621094 6.734375 -9.210938 6.003906 -9.210938 L 3.011719 -9.210938 L 3.011719 -10.992188 L 0.535156 -10.992188 L 0.535156 -6.359375 L 4.59375 -6.359375 C 4.96875 -6.359375 5.21875 -6.164062 5.21875 -5.84375 L 5.21875 -3.492188 C 5.21875 -2.992188 4.933594 -2.851562 4.59375 -2.851562 L 2.492188 -2.851562 Z M 2.492188 0 " />
            </g>
        </g>
    </g>
    <g fill="#a6a6a6" fill-opacity="1">
        <g transform="translate(163.53734, 258.48864)">
            <g>
                <path
                    d="M 4.167969 0 L 5.289062 0 C 6.820312 0 8.691406 -1.53125 8.691406 -3.097656 L 8.691406 -7.035156 C 8.691406 -8.265625 7.5 -9.210938 6.449219 -9.210938 L 0.710938 -9.210938 L 0.710938 -6.359375 L 5.734375 -6.359375 C 5.949219 -6.359375 6.199219 -6.144531 6.199219 -5.929688 L 6.199219 -4.007812 C 6.199219 -3.082031 5.648438 -2.851562 5.238281 -2.851562 L 4.167969 -2.851562 Z M 0.800781 2.832031 L 3.296875 2.832031 L 3.296875 -5.378906 L 0.800781 -5.378906 Z M 0.800781 2.832031 " />
            </g>
        </g>
    </g>
    <g fill="#a6a6a6" fill-opacity="1">
        <g transform="translate(173.83328, 258.48864)">
            <g>
                <path
                    d="M 0.710938 0 L 8.515625 0 L 8.515625 -2.851562 L 7.730469 -2.851562 L 7.730469 -6.324219 C 7.730469 -8.265625 5.84375 -9.210938 4.578125 -9.210938 L 0.710938 -9.210938 L 0.710938 -6.359375 L 4.382812 -6.359375 C 4.792969 -6.359375 5.238281 -6.054688 5.238281 -5.558594 L 5.238281 -2.851562 L 0.710938 -2.851562 Z M 0.710938 0 " />
            </g>
        </g>
    </g>
    <g fill="#a6a6a6" fill-opacity="1">
        <g transform="translate(183.772965, 258.48864)">
            <g />
        </g>
    </g>
    <g fill="#a6a6a6" fill-opacity="1">
        <g transform="translate(189.117012, 258.48864)">
            <g>
                <path
                    d="M 0.710938 0 L 2.601562 0 C 3.757812 0 4.273438 -0.925781 4.273438 -1.65625 L 4.273438 -6.359375 L 6.785156 -6.359375 C 7.195312 -6.359375 7.640625 -6.054688 7.640625 -5.558594 L 7.640625 0 L 10.136719 0 L 10.136719 -6.324219 C 10.136719 -8.265625 8.15625 -9.210938 6.894531 -9.210938 L 0.800781 -9.210938 L 0.800781 -6.359375 L 1.78125 -6.359375 L 1.78125 -2.851562 L 0.710938 -2.851562 Z M 0.710938 0 " />
            </g>
        </g>
    </g>
    <g fill="#a6a6a6" fill-opacity="1">
        <g transform="translate(200.855766, 258.48864)">
            <g>
                <path
                    d="M 1.851562 0 L 4.347656 0 L 4.347656 -7.589844 C 4.347656 -8.460938 3.667969 -9.210938 2.671875 -9.210938 L 0.535156 -9.210938 L 0.535156 -6.359375 L 1.851562 -6.359375 Z M 1.851562 0 " />
            </g>
        </g>
    </g>
    <g fill="#a6a6a6" fill-opacity="1">
        <g transform="translate(206.805446, 258.48864)">
            <g>
                <path
                    d="M 0.710938 0 L 8.515625 0 L 8.515625 -2.851562 L 7.730469 -2.851562 L 7.730469 -6.324219 C 7.730469 -8.265625 5.84375 -9.210938 4.578125 -9.210938 L 0.710938 -9.210938 L 0.710938 -6.359375 L 4.382812 -6.359375 C 4.792969 -6.359375 5.238281 -6.054688 5.238281 -5.558594 L 5.238281 -2.851562 L 0.710938 -2.851562 Z M 0.710938 0 " />
            </g>
        </g>
    </g>
    <g fill="#a6a6a6" fill-opacity="1">
        <g transform="translate(216.745131, 258.48864)">
            <g>
                <path
                    d="M 5.21875 -5.558594 L 5.21875 0 L 7.710938 0 L 7.710938 -6.324219 C 7.710938 -8.246094 5.84375 -9.210938 4.558594 -9.210938 L 0.535156 -9.210938 L 0.535156 -6.359375 L 4.363281 -6.359375 C 4.773438 -6.359375 5.21875 -6.054688 5.21875 -5.558594 Z M 5.21875 -5.558594 " />
            </g>
        </g>
    </g>
    <g fill="#a6a6a6" fill-opacity="1">
        <g transform="translate(226.061376, 258.48864)">
            <g>
                <path
                    d="M 0.710938 0 L 2.601562 0 C 3.757812 0 4.273438 -0.925781 4.273438 -1.65625 L 4.273438 -6.359375 L 6.785156 -6.359375 C 7.195312 -6.359375 7.640625 -6.054688 7.640625 -5.558594 L 7.640625 0 L 10.136719 0 L 10.136719 -6.324219 C 10.136719 -8.265625 8.15625 -9.210938 6.894531 -9.210938 L 0.800781 -9.210938 L 0.800781 -6.359375 L 1.78125 -6.359375 L 1.78125 -2.851562 L 0.710938 -2.851562 Z M 0.710938 0 " />
            </g>
        </g>
    </g>
</svg>