<svg width="2849" height="2831" viewBox="0 0 2849 2831" fill="none" xmlns="http://www.w3.org/2000/svg">
<path d="M1852.8 0H611.793V1605.41H2217.35V0H1852.8ZM2110.41 106.931V250.274C2040.9 231.421 1985.93 176.444 1967.07 106.931H2110.41ZM1857.55 106.931C1880 235.594 1981.75 337.345 2110.41 359.796V495.079C1907.78 470.757 1746.73 309.568 1722.41 107.075H1857.69L1857.55 106.931ZM1614.62 106.931C1639.95 368.575 1848.77 577.4 2110.27 602.586V736.862C2046.66 731.969 1984.63 718.296 1924.9 696.133C1842.15 665.478 1767.03 619.568 1701.54 559.698C1572.88 442.117 1493.87 279.345 1480.2 106.931H1614.47H1614.62ZM976.482 782.628C1023.54 762.623 1068.16 738.157 1110.18 709.661V1498.48H976.482V782.628ZM1217.26 622.303C1307.21 534.944 1374.42 428.013 1414.71 311.295C1455.01 428.013 1522.22 535.088 1612.03 622.303V1498.48H1217.26V622.303ZM1719.1 709.661C1761.12 738.157 1805.88 762.623 1852.8 782.628V1498.48H1719.1V709.661ZM1348.8 106.931C1335.27 279.345 1256.26 442.117 1127.6 559.698C1062.11 619.568 986.988 665.478 904.235 696.133C844.509 718.296 782.336 731.969 718.724 736.862V602.586C980.368 577.256 1189.19 368.431 1214.52 106.931H1348.65H1348.8ZM1107.02 106.931C1082.55 309.568 921.505 470.613 718.868 494.935V359.652C847.675 337.201 949.425 235.45 971.733 106.787H1107.02V106.931ZM718.868 106.931H862.355C843.358 176.444 788.381 231.421 718.868 250.274V106.931ZM718.868 844.225C769.959 840.771 820.187 832.424 869.407 819.471V1498.48H718.868V844.225ZM1959.73 1498.48V819.471C2008.95 832.568 2059.18 840.771 2110.27 844.225V1498.48H1959.73Z" fill="#CFB034"/>
<path d="M317.916 2344.87H198.319V2268.16C198.319 2238.23 195.441 2209.88 189.972 2182.96C171.119 2169.15 145.358 2156.77 112.256 2145.54C106.787 2143.39 95.7057 2139.79 79.0112 2135.04C62.3166 2130.29 39.7215 2123.96 11.5135 2116.18C12.8087 2108.41 15.6871 2095.46 19.8607 2077.47C24.0344 2059.48 29.6472 2036.02 36.6992 2007.24C83.4726 2013.28 131.254 2025.37 180.33 2043.51C226.527 2060.78 264.09 2079.34 293.306 2099.63C309.712 2132.3 317.916 2184.55 317.916 2256.5V2345.01V2344.87ZM13.8162 2359.26C4.60539 2336.38 0 2303.42 0 2260.97C0 2226.57 2.73445 2197.93 8.05943 2175.19L124.633 2195.05C120.747 2224.41 118.877 2249.31 118.877 2269.75C118.877 2293.92 121.323 2316.09 126.072 2336.38L13.6722 2359.41L13.8162 2359.26Z" fill="#737373"/>
<path d="M738.438 2344.85H619.13V2268.14C619.13 2240.51 615.964 2212.16 609.487 2182.94C590.346 2168.41 567.031 2156.17 539.687 2146.1C530.476 2142.5 518.099 2138.33 502.556 2133.44C487.157 2128.69 468.447 2123.07 446.428 2116.6C449.162 2101.49 457.653 2065.22 471.613 2008.08C561.562 2020.32 642.301 2050.83 713.828 2099.47C730.235 2132.14 738.438 2184.38 738.438 2256.34V2344.85Z" fill="#737373"/>
<path d="M1035.07 2344.86H914.465V2136.76C908.852 2132.58 902.376 2127.98 895.036 2122.94C887.84 2117.76 879.637 2112 870.426 2105.82L925.259 2003.92C977.645 2024.21 1014.2 2048.39 1035.07 2076.74V2344.86Z" fill="#737373"/>
<path d="M1554.16 2107.67C1546.68 2191.57 1515.45 2256.34 1460.33 2301.96C1413.26 2340.96 1356.42 2361.11 1289.78 2362.55C1222.14 2301.82 1183.43 2193.16 1173.5 2036.57L1296.98 2015.85C1304.61 2117.74 1322.6 2191.14 1351.24 2235.61C1363.04 2233.6 1375.85 2225.11 1389.66 2209.85C1403.48 2194.88 1413.7 2178.33 1420.6 2160.06C1396.71 2144.37 1372.68 2132.71 1348.07 2125.52L1386.21 2011.82C1461.91 2032.4 1518.04 2064.35 1554.45 2107.53L1554.16 2107.67Z" fill="#737373"/>
<path d="M1923.62 2233.9H1685.87V2140.64H1923.62V2233.9Z" fill="#737373"/>
<path d="M2376.67 2180.22C2359.97 2229.87 2331.48 2271.89 2290.89 2306.43C2258.66 2334.07 2221.24 2355.08 2178.49 2369.47L2123.66 2266.86C2177.77 2244.12 2212.6 2217.93 2228 2188.28C2207.56 2162.66 2177.34 2142.37 2137.48 2127.4C2130.42 2124.81 2119.63 2121.5 2104.81 2117.47C2090.13 2113.44 2071.42 2108.84 2048.39 2103.37C2054 2046.81 2071.13 1986.07 2099.91 1921.31L2221.67 1961.46C2209.87 1989.24 2202.53 2011.55 2199.79 2028.38C2286.72 2051.41 2345.73 2101.93 2376.67 2180.07V2180.22Z" fill="#737373"/>
<path d="M2848.13 2163.94C2843.38 2192.58 2829.57 2223.38 2807.12 2256.34C2780.78 2294.91 2747.97 2327 2708.82 2352.33L2642.91 2253.75C2680.47 2221.8 2702.06 2196.47 2707.67 2177.9C2687.09 2158.62 2661.76 2144.08 2631.82 2134.44C2602.61 2124.8 2559.43 2116.74 2502.3 2109.83L2524.17 1997.43C2675.29 2002.47 2783.37 2058.02 2848.28 2164.09L2848.13 2163.94ZM2631.39 2424.15H2510.79V2178.91H2631.39V2424.15Z" fill="#737373"/>
<mask id="mask0_6408_1231" style="mask-type:luminance" maskUnits="userSpaceOnUse" x="776" y="2157" width="118" height="119">
<path d="M893.301 2157.76H776.008V2275.06H893.301V2157.76Z" fill="white"/>
</mask>
<g mask="url(#mask0_6408_1231)">
<mask id="mask1_6408_1231" style="mask-type:luminance" maskUnits="userSpaceOnUse" x="776" y="2157" width="118" height="118">
<path d="M834.585 2157.76C802.203 2157.76 776.01 2183.96 776.01 2216.34C776.01 2248.72 802.203 2274.91 834.585 2274.91C866.966 2274.91 893.159 2248.72 893.159 2216.34C893.159 2183.96 866.966 2157.76 834.585 2157.76Z" fill="white"/>
</mask>
<g mask="url(#mask1_6408_1231)">
<path d="M776.01 2157.76H893.303V2275.06H776.01V2157.76Z" fill="#CFB034"/>
</g>
</g>
<path d="M546.028 2775.89H567.472C596.831 2775.89 632.811 2746.53 632.811 2716.45V2640.9C632.811 2617.29 609.928 2599.16 589.779 2599.16H479.682V2653.85H576.107C580.281 2653.85 585.03 2658.02 585.03 2662.05V2698.9C585.03 2716.6 574.524 2721.06 566.608 2721.06H546.028V2775.75V2775.89ZM481.409 2830.29H529.333V2672.7H481.409V2830.29Z" fill="#A6A6A6"/>
<path d="M697.145 2700.76H744.926V2629.38C744.926 2613.26 731.973 2599.3 712.832 2599.3H673.83V2653.99H697.001V2700.91L697.145 2700.76Z" fill="#A6A6A6"/>
<path d="M823.633 2775.91H866.089C898.902 2775.91 923.8 2755.33 923.8 2722.66V2630.69C923.8 2610.54 905.091 2599.17 890.987 2599.17H833.563V2564.92H786.07V2653.86H863.93C871.126 2653.86 875.875 2657.61 875.875 2663.79V2708.98C875.875 2718.63 870.406 2721.22 863.93 2721.22H823.633V2775.91Z" fill="#A6A6A6"/>
<path d="M1034.48 2775.89H1055.92C1085.28 2775.89 1121.26 2746.53 1121.26 2716.45V2640.9C1121.26 2617.29 1098.38 2599.16 1078.23 2599.16H968.133V2653.85H1064.56C1068.73 2653.85 1073.48 2658.02 1073.48 2662.05V2698.9C1073.48 2716.6 1062.98 2721.06 1055.06 2721.06H1034.48V2775.75V2775.89ZM969.86 2830.29H1017.78V2672.7H969.86V2830.29Z" fill="#A6A6A6"/>
<path d="M1165.74 2775.89H1315.56V2721.2H1300.45V2654.57C1300.45 2617.29 1264.18 2599.16 1240 2599.16H1165.74V2653.85H1236.26C1244.17 2653.85 1252.66 2659.75 1252.66 2669.25V2721.2H1165.74V2775.89Z" fill="#A6A6A6"/>
<path d="M1459.03 2775.89H1495.3C1517.46 2775.89 1527.39 2758.19 1527.39 2744.09V2653.85H1575.6C1583.52 2653.85 1592.01 2659.75 1592.01 2669.25V2775.89H1639.93V2654.57C1639.93 2617.29 1601.94 2599.16 1577.76 2599.16H1460.9V2653.85H1479.75V2721.2H1459.17V2775.89H1459.03Z" fill="#A6A6A6"/>
<path d="M1706.13 2775.89H1754.06V2630.25C1754.06 2613.55 1740.96 2599.16 1721.97 2599.16H1680.95V2653.85H1706.28V2775.89H1706.13Z" fill="#A6A6A6"/>
<path d="M1798.39 2775.89H1948.21V2721.2H1933.1V2654.57C1933.1 2617.29 1896.83 2599.16 1872.65 2599.16H1798.39V2653.85H1868.91C1876.82 2653.85 1885.32 2659.75 1885.32 2669.25V2721.2H1798.39V2775.89Z" fill="#A6A6A6"/>
<path d="M2075.74 2669.25V2775.89H2123.52V2654.57C2123.52 2617.73 2087.68 2599.16 2063.07 2599.16H1985.93V2653.85H2059.33C2067.25 2653.85 2075.74 2659.75 2075.74 2669.25Z" fill="#A6A6A6"/>
<path d="M2167.99 2775.89H2204.26C2226.42 2775.89 2236.36 2758.19 2236.36 2744.09V2653.85H2284.57C2292.48 2653.85 2300.97 2659.75 2300.97 2669.25V2775.89H2348.9V2654.57C2348.9 2617.29 2310.91 2599.16 2286.73 2599.16H2169.86V2653.85H2188.72V2721.2H2168.14V2775.89H2167.99Z" fill="#A6A6A6"/>
</svg>
